<svg width="200" height="200" viewBox="0 0 200 200" fill="none" xmlns="http://www.w3.org/2000/svg">
  <rect width="200" height="200" rx="42" fill="#3dcc7e"/>
  <g transform="translate(48, 48) scale(0.99)">
    <path d="M89.8628 91.0387L68.8869 70.1545H35.7525L14.7769 91.0387L24.613 100.838L45.5886 79.9536C47.3899 78.163 49.7599 77.1865 52.3197 77.1865C54.8557 77.1865 57.2497 78.163 59.0273 79.9536L80.0267 100.838L89.8628 91.0387Z" fill="white"/>
    <path d="M72.3758 64.1163L101.031 71.7505L104.633 58.3541L75.9782 50.7199C73.5369 50.0688 71.4751 48.5062 70.2189 46.3086C68.939 44.1274 68.6071 41.5719 69.2708 39.1302L76.9263 10.6118L63.4641 7.03076L55.8086 35.5491L72.3758 64.1V64.1163Z" fill="white"/>
    <path d="M3.60265 71.7505L32.2575 64.1163L32.2812 64.1L48.8484 35.5491L41.1692 7.03076L27.7067 10.6118L35.3859 39.1302C36.0259 41.5719 35.718 44.1274 34.4381 46.3086C33.1582 48.5062 31.1198 50.0688 28.6548 50.7199L0 58.3541L3.60265 71.7505Z" fill="white"/>
  </g>
</svg>
